<svg width="24" height="24" viewBox="0 0 24 24" fill="none" xmlns="http://www.w3.org/2000/svg">
<path d="M5 8C5 6.34315 6.34315 5 8 5H16C17.6569 5 19 6.34315 19 8V16C19 17.6569 17.6569 19 16 19H8C6.34315 19 5 17.6569 5 16V8Z" fill="#270108"/>
<path d="M9.5 10.5C9.5 9.94772 9.94772 9.5 10.5 9.5H13.5C14.0523 9.5 14.5 9.94772 14.5 10.5V13.5C14.5 14.0523 14.0523 14.5 13.5 14.5H10.5C9.94772 14.5 9.5 14.0523 9.5 13.5V10.5Z" fill="white"/>
<path fill-rule="evenodd" clip-rule="evenodd" d="M10 3C10.5523 3 11 3.44772 11 4V6C11 6.55228 10.5523 7 10 7C9.44772 7 9 6.55228 9 6V4C9 3.44772 9.44772 3 10 3Z" fill="#FCCC30"/>
<path fill-rule="evenodd" clip-rule="evenodd" d="M10 17C10.5523 17 11 17.4477 11 18V20C11 20.5523 10.5523 21 10 21C9.44772 21 9 20.5523 9 20V18C9 17.4477 9.44772 17 10 17Z" fill="#FCCC30"/>
<path fill-rule="evenodd" clip-rule="evenodd" d="M3 14C3 13.4477 3.44772 13 4 13H6C6.55228 13 7 13.4477 7 14C7 14.5523 6.55228 15 6 15H4C3.44772 15 3 14.5523 3 14Z" fill="#FCCC30"/>
<path fill-rule="evenodd" clip-rule="evenodd" d="M17 14C17 13.4477 17.4477 13 18 13H20C20.5523 13 21 13.4477 21 14C21 14.5523 20.5523 15 20 15H18C17.4477 15 17 14.5523 17 14Z" fill="#FCCC30"/>
<path fill-rule="evenodd" clip-rule="evenodd" d="M14 3C14.5523 3 15 3.44772 15 4V6C15 6.55228 14.5523 7 14 7C13.4477 7 13 6.55228 13 6V4C13 3.44772 13.4477 3 14 3Z" fill="#FCCC30"/>
<path fill-rule="evenodd" clip-rule="evenodd" d="M14 17C14.5523 17 15 17.4477 15 18V20C15 20.5523 14.5523 21 14 21C13.4477 21 13 20.5523 13 20V18C13 17.4477 13.4477 17 14 17Z" fill="#FCCC30"/>
<path fill-rule="evenodd" clip-rule="evenodd" d="M3 10C3 9.44772 3.44772 9 4 9H6C6.55228 9 7 9.44772 7 10C7 10.5523 6.55228 11 6 11H4C3.44772 11 3 10.5523 3 10Z" fill="#FCCC30"/>
<path fill-rule="evenodd" clip-rule="evenodd" d="M17 10C17 9.44772 17.4477 9 18 9H20C20.5523 9 21 9.44772 21 10C21 10.5523 20.5523 11 20 11H18C17.4477 11 17 10.5523 17 10Z" fill="#FCCC30"/>
</svg>
