<svg width="60" height="60" viewBox="0 0 60 60" fill="none" xmlns="http://www.w3.org/2000/svg">
<path fill-rule="evenodd" clip-rule="evenodd" d="M55.7129 2.54253e-06C58.0806 2.80065e-06 60 1.91939 60 4.28708L60 17.2789C60 19.6466 58.0806 21.5659 55.7129 21.5659C53.3452 21.5659 51.4259 19.6466 51.4259 17.2789V14.8527L42.0711 24.2074C40.3969 25.8816 37.6825 25.8816 36.0083 24.2074C34.3341 22.5332 34.3341 19.8188 36.0083 18.1446L45.5787 8.57415L42.7211 8.57415C40.3535 8.57415 38.4341 6.65476 38.4341 4.28708C38.4341 1.91939 40.3535 2.80065e-06 42.7211 2.54253e-06H55.7129Z" fill="#FCCC30"/>
<path fill-rule="evenodd" clip-rule="evenodd" d="M5.73846e-07 4.28708C7.28475e-07 1.91939 1.91939 2.15559e-06 4.28707 1.79397e-06L17.2789 0C19.6466 4.12753e-07 21.5659 1.91939 21.5659 4.28707C21.5659 6.65476 19.6466 8.57415 17.2789 8.57415H14.8527L24.2074 17.9289C25.8816 19.6031 25.8816 22.3175 24.2074 23.9917C22.5332 25.6659 19.8188 25.6659 18.1446 23.9917L8.57415 14.4213V17.2789C8.57415 19.6466 6.65476 21.5659 4.28708 21.5659C1.91939 21.5659 1.50335e-06 19.6466 1.14173e-06 17.2789L5.73846e-07 4.28708Z" fill="#270108"/>
<path fill-rule="evenodd" clip-rule="evenodd" d="M4.28707 60C1.91939 60 1.41445e-07 58.0806 9.03108e-08 55.7129L0 42.7211C7.23237e-07 40.3534 1.91939 38.4341 4.28707 38.4341C6.65476 38.4341 8.57415 40.3534 8.57415 42.7211V45.1473L17.9289 35.7926C19.6031 34.1184 22.3175 34.1184 23.9917 35.7926C25.6659 37.4668 25.6659 40.1812 23.9917 41.8554L14.4213 51.4258H17.2789C19.6466 51.4258 21.5659 53.3452 21.5659 55.7129C21.5659 58.0806 19.6466 60 17.2789 60H4.28707Z" fill="#FCCC30"/>
<path fill-rule="evenodd" clip-rule="evenodd" d="M60 55.7129C60 58.0806 58.0806 60 55.7129 60H42.7211C40.3535 60 38.4341 58.0806 38.4341 55.7129C38.4341 53.3452 40.3534 51.4258 42.7211 51.4258H45.1473L35.7926 42.0711C34.1184 40.3969 34.1184 37.6825 35.7926 36.0083C37.4668 34.3341 40.1812 34.3341 41.8554 36.0083L51.4259 45.5787V42.7211C51.4259 40.3534 53.3452 38.4341 55.7129 38.4341C58.0806 38.4341 60 40.3534 60 42.7211V55.7129Z" fill="#270108"/>
</svg>
