<svg width="60" height="60" viewBox="0 0 60 60" fill="none" xmlns="http://www.w3.org/2000/svg">
<path d="M15.0002 9.98505C15.0001 4.46209 19.4773 0 25.0003 0H50C55.5229 0 60 4.47715 60 10V50C60 55.5229 55.5229 60 50 60H9.9987C9.9987 60 14.9987 60 15 53.3333C15.0009 48.6363 15.0005 24.0831 15.0002 9.98505Z" fill="#270108"/>
<path d="M25 15C25 12.2386 27.2386 10 30 10H45C47.7614 10 50 12.2386 50 15C50 17.7614 47.7614 20 45 20H30C27.2386 20 25 17.7614 25 15Z" fill="white"/>
<path fill-rule="evenodd" clip-rule="evenodd" d="M25 30.8333C25 29.4526 26.1193 28.3333 27.5 28.3333H47.5C48.8807 28.3333 50 29.4526 50 30.8333C50 32.2141 48.8807 33.3333 47.5 33.3333H27.5C26.1193 33.3333 25 32.2141 25 30.8333Z" fill="white"/>
<path d="M0 26.6667C0 22.9848 2.98477 20 6.66667 20H10V51.6667C10 54.4281 7.76142 56.6667 5 56.6667Lnan nanL5 56.6667C2.23858 56.6667 0 54.4281 0 51.6667V26.6667Z" fill="#FCCC30"/>
</svg>
