<svg width="60" height="60" viewBox="0 0 60 60" fill="none" xmlns="http://www.w3.org/2000/svg">
<path d="M60 30C60 46.5685 46.5686 60 30 60C13.4315 60 0 46.5685 0 30C0 13.4315 13.4315 0 30 0C46.5686 0 60 13.4315 60 30Z" fill="#492122"/>
<path fill-rule="evenodd" clip-rule="evenodd" d="M59.8992 32.477C53.4666 33.3376 45.5916 35.9956 43.325 40.6662C42.0209 43.3534 42.2465 51.4893 42.7099 57.1825C52.2162 52.7299 59.0035 43.4373 59.8992 32.477ZM28.7097 59.9728C12.7397 59.297 0 46.1363 0 30C0 26.5595 0.579149 23.2543 1.64528 20.1766C5.97209 21.2172 9.97205 24.1084 9.97205 31.1207C9.97205 36.3481 13.9768 37.3765 18.517 38.5423C20.6093 39.0796 22.8154 39.6461 24.7956 40.6662C27.7376 42.1818 28.7333 52.1196 28.7097 59.9728ZM10.9349 6.83599C16.1181 2.56504 22.7595 0 30 0C39.0458 0 47.1564 4.00354 52.6568 10.3354C51.5067 10.9723 50.2352 11.5657 48.8838 12.0298C43.7782 13.7833 43.3619 15.5367 41.8923 21.7278C41.7619 22.2773 41.6231 22.8618 41.4721 23.4844C38.8516 34.2838 26.6485 29.2116 24.7956 25.3935C24.0486 23.8543 23.9039 22.0048 23.7545 20.0953C23.5332 17.2679 23.3017 14.3088 21.0897 12.0298C20.1313 11.0424 18.6233 10.9057 17.0688 10.7648C15.0148 10.5786 12.8797 10.3851 11.825 8.21165L10.9349 6.83599Z" fill="#FCCC30"/>
<path fill-rule="evenodd" clip-rule="evenodd" d="M26.6101 59.8112C26.598 57.1643 26.4677 54.3116 26.1828 51.6704C25.9194 49.2272 25.5326 47.0533 25.0216 45.4204C24.766 44.6033 24.5001 43.9905 24.2459 43.5682C24.0081 43.1732 23.8519 43.0631 23.8349 43.0512C22.4742 42.3502 20.9425 41.8723 19.2901 41.4309C18.8975 41.326 18.4894 41.2212 18.0737 41.1145C16.8246 40.7939 15.5062 40.4555 14.3339 40.0431C12.7431 39.4835 11.0899 38.6856 9.84479 37.3008C8.5435 35.8535 7.87294 33.9767 7.87294 31.6384C7.87294 27.5068 6.3229 25.3349 4.42077 24.0877C3.39001 23.4119 2.18002 22.9599 0.900879 22.6773C1.24597 21.3018 1.68605 19.9638 2.21373 18.671C3.76687 19.0518 5.31774 19.6536 6.72365 20.5754C9.9171 22.6692 12.0729 26.2245 12.0729 31.6384C12.0729 33.1183 12.4707 33.9395 12.968 34.4926C13.5215 35.1083 14.3972 35.6131 15.7276 36.0811C16.713 36.4277 17.7685 36.6988 18.9592 37.0046C19.4102 37.1205 19.8809 37.2414 20.3741 37.3732C22.0896 37.8315 23.9804 38.4012 25.7582 39.317C26.7027 39.8035 27.3689 40.6124 27.8442 41.4021C28.3307 42.2102 28.7162 43.1635 29.03 44.1661C29.6578 46.1723 30.0817 48.6518 30.3586 51.22C30.6664 54.0738 30.8038 57.1463 30.8107 59.9899C30.5416 59.9971 30.2709 60 30 60C28.8537 60 27.723 59.9364 26.6101 59.8112ZM59.5579 35.1643C58.1952 35.3695 56.7738 35.6583 55.369 36.0327C52.988 36.6675 50.7242 37.5301 48.895 38.6004C47.0431 39.684 45.8079 40.8793 45.2152 42.1007C44.9476 42.652 44.6876 43.9228 44.5524 45.8995C44.424 47.7772 44.4223 50.009 44.4982 52.2608C44.5433 53.598 44.6149 54.9209 44.7006 56.1585C43.4018 56.8899 42.043 57.5275 40.6334 58.0619C40.4888 56.3206 40.3666 54.361 40.3006 52.4023C40.2221 50.0745 40.2204 47.687 40.3622 45.613C40.4973 43.638 40.7777 41.6248 41.4366 40.267C42.534 38.0056 44.5481 36.2778 46.7739 34.9754C49.0224 33.6597 51.6646 32.6736 54.2871 31.9745C56.2086 31.4623 58.1567 31.0942 59.9884 30.8657C59.947 32.3271 59.8011 33.7624 59.5579 35.1643ZM12.3792 5.71875L13.6589 7.69658L13.7152 7.81244C14.1128 8.63186 14.7798 8.93646 16.5393 9.12225C16.7218 9.14152 16.9282 9.16019 17.15 9.18025C17.8318 9.24191 18.6588 9.3167 19.3804 9.46231C20.3998 9.66801 21.619 10.0767 22.5975 11.0849C24.9775 13.5369 25.4885 16.553 25.7286 19.0264C25.7824 19.5806 25.8203 20.0721 25.8561 20.5358C25.908 21.2077 25.9555 21.8216 26.0399 22.4831C26.1727 23.523 26.3671 24.3376 26.6858 24.9943C26.8867 25.4083 27.5867 26.1773 28.8739 26.9286C30.0996 27.644 31.6006 28.1891 33.0755 28.3507C34.5472 28.5119 35.8608 28.2813 36.8928 27.6229C37.8917 26.9856 38.8787 25.7877 39.4322 23.5068C39.5759 22.9146 39.7109 22.3458 39.8398 21.8029C40.1145 20.6459 40.3612 19.6067 40.6041 18.7101C40.9642 17.3804 41.3642 16.1696 41.9527 15.1085C43.2436 12.7808 45.208 11.5898 48.2026 10.5613C49.3804 10.1569 50.4949 9.64185 51.5099 9.08768C52.503 10.1089 53.424 11.2006 54.2646 12.3545C52.8646 13.1729 51.277 13.9463 49.5668 14.5336C47.0026 15.4143 46.1875 16.1323 45.6256 17.1456C45.2876 17.7549 44.9927 18.5725 44.658 19.8081C44.4325 20.6405 44.2108 21.5748 43.9467 22.6874C43.815 23.2426 43.6723 23.8437 43.5137 24.4972C42.757 27.616 41.2359 29.834 39.1518 31.1636C37.1008 32.4722 34.7565 32.7599 32.6183 32.5257C30.4832 32.2919 28.4223 31.528 26.7568 30.556C25.153 29.6199 23.6327 28.323 22.9072 26.828C22.2994 25.5755 22.0305 24.2424 21.8738 23.0152C21.7806 22.286 21.7148 21.4535 21.6536 20.6795C21.6184 20.2341 21.5847 19.808 21.5482 19.4322C21.325 17.1328 20.9096 15.3762 19.5837 14.0101C19.4498 13.8721 19.1864 13.7078 18.5496 13.5793C18.0685 13.4822 17.5928 13.4392 16.9972 13.3854C16.7263 13.3609 16.4306 13.3341 16.0983 13.299C14.271 13.1061 11.4723 12.6578 9.99908 9.77166L9.13866 8.44193C10.1525 7.46067 11.2353 6.55028 12.3792 5.71875Z" fill="white"/>
</svg>
