<svg width="48" height="60" viewBox="0 0 48 60" fill="none" xmlns="http://www.w3.org/2000/svg">
<path d="M47.3333 23.3333C47.3333 36.22 24 48.3333 24 48.3333C24 48.3333 0.666656 36.22 0.666656 23.3333C0.666656 10.4467 11.1133 0 24 0C36.8866 0 47.3333 10.4467 47.3333 23.3333Z" fill="#270108"/>
<path d="M34 56.6667C34 58.5076 29.5228 60 24 60C18.4771 60 14 58.5076 14 56.6667C14 54.8257 18.4771 53.3333 24 53.3333C29.5228 53.3333 34 54.8257 34 56.6667Z" fill="#FCCC30"/>
<path d="M30.6667 23.3333C30.6667 27.0152 27.6819 30 24 30C20.3181 30 17.3333 27.0152 17.3333 23.3333C17.3333 19.6514 20.3181 16.6667 24 16.6667C27.6819 16.6667 30.6667 19.6514 30.6667 23.3333Z" fill="white"/>
</svg>
