<svg width="54" height="60" viewBox="0 0 54 60" fill="none" xmlns="http://www.w3.org/2000/svg">
<path fill-rule="evenodd" clip-rule="evenodd" d="M50.0474 15.3725C52.0543 14.0756 52.0543 10.9859 50.0474 9.68894L35.8142 0.491351C33.7228 -0.860161 31.0425 0.736084 31.0425 3.33313V7.54144H17.5951C8.0617 7.54144 0.333344 15.7362 0.333344 25.845V27.0854C0.333344 29.8423 2.44107 32.0772 5.04109 32.0772C7.64111 32.0772 9.74884 29.8423 9.74884 27.0854V25.845C9.74884 21.2501 13.2617 17.5252 17.5951 17.5252H31.0425V21.7283C31.0425 24.3254 33.7228 25.9216 35.8142 24.5701L50.0474 15.3725Z" fill="#270108"/>
<path fill-rule="evenodd" clip-rule="evenodd" d="M44.2512 34.1583C44.2512 38.7532 40.7383 42.4781 36.4049 42.4781H22.9545V38.2717C22.9545 35.6746 20.2742 34.0784 18.1827 35.4299L3.94958 44.6275C1.94263 45.9244 1.94263 49.0141 3.94958 50.3111L18.1827 59.5086C20.2742 60.8602 22.9545 59.2639 22.9545 56.6669V52.4618H36.4049C45.9383 52.4618 53.6667 44.267 53.6667 34.1583V32.9179C53.6667 30.1609 51.5589 27.926 48.9589 27.926C46.3589 27.926 44.2512 30.1609 44.2512 32.9179V34.1583Z" fill="#FCCC30"/>
</svg>
