<svg width="80" height="80" viewBox="0 0 80 80" fill="none" xmlns="http://www.w3.org/2000/svg">
<mask id="mask0_576_7963" style="mask-type:alpha" maskUnits="userSpaceOnUse" x="6" y="6" width="66" height="66">
<path fill-rule="evenodd" clip-rule="evenodd" d="M6.66699 6.66667H71.5897V71.59H6.66699V6.66667Z" fill="white"/>
</mask>
<g mask="url(#mask0_576_7963)">
<path fill-rule="evenodd" clip-rule="evenodd" d="M39.1294 11.6667C23.986 11.6667 11.666 23.9833 11.666 39.1267C11.666 54.27 23.986 66.59 39.1294 66.59C54.2694 66.59 66.5893 54.27 66.5893 39.1267C66.5893 23.9833 54.2694 11.6667 39.1294 11.6667ZM39.1294 71.59C21.2294 71.59 6.66602 57.0267 6.66602 39.1267C6.66602 21.2267 21.2294 6.66667 39.1294 6.66667C57.0294 6.66667 71.5893 21.2267 71.5893 39.1267C71.5893 57.0267 57.0294 71.59 39.1294 71.59Z" fill="#E96767"/>
</g>
<mask id="mask1_576_7963" style="mask-type:alpha" maskUnits="userSpaceOnUse" x="57" y="59" width="18" height="17">
<path fill-rule="evenodd" clip-rule="evenodd" d="M57.4668 59.0232H74.2136V75.739H57.4668V59.0232Z" fill="white"/>
</mask>
<g mask="url(#mask1_576_7963)">
<path fill-rule="evenodd" clip-rule="evenodd" d="M71.7143 75.739C71.0776 75.739 70.4376 75.4957 69.9476 75.009L58.201 63.2957C57.2243 62.319 57.221 60.7357 58.1976 59.759C59.171 58.7757 60.7543 58.7823 61.7343 59.7523L73.481 71.469C74.4576 72.4457 74.461 74.0257 73.4843 75.0023C72.9976 75.4957 72.3543 75.739 71.7143 75.739Z" fill="#E96767"/>
</g>
</svg>
