<svg width="54" height="60" viewBox="0 0 54 60" fill="none" xmlns="http://www.w3.org/2000/svg">
<path d="M0.333344 11.447C0.333344 9.92371 1.57868 8.63744 3.2416 8.44318L23.6667 6.05718L44.0918 8.44318C45.7547 8.63744 47 9.92371 47 11.447V40.3293C47 44.4514 44.6931 48.2906 40.8768 50.5197L25.4692 59.519C24.3712 60.1603 22.9622 60.1603 21.8642 59.519L6.45658 50.5197C2.64028 48.2906 0.333344 44.4514 0.333344 40.3293V11.447Z" fill="#270108"/>
<path fill-rule="evenodd" clip-rule="evenodd" d="M9.90827 2.386C8.24535 2.58026 7.00001 3.86653 7.00001 5.38986V8.00414L23.6667 6.05718L44.0918 8.44318C45.7547 8.63744 47 9.92371 47 11.447V40.3293C47 42.1593 46.5454 43.9335 45.7058 45.5358L47.5434 44.4625C51.3597 42.2334 53.6667 38.3942 53.6667 34.2721V5.38986C53.6667 3.86653 52.4213 2.58026 50.7584 2.386L30.3333 0L9.90827 2.386Z" fill="#FCCC30"/>
<path fill-rule="evenodd" clip-rule="evenodd" d="M16.1667 29.1502V26.8787C16.1667 23.7425 18.9649 21.2001 22.4167 21.2001C25.8685 21.2001 28.6667 23.7425 28.6667 26.8787V29.1502C30.0474 29.1502 31.1667 30.1672 31.1667 31.4216V37.1002C31.1667 38.3547 30.0474 39.3717 28.6667 39.3717H16.1667C14.786 39.3717 13.6667 38.3547 13.6667 37.1002V31.4216C13.6667 30.1672 14.786 29.1502 16.1667 29.1502ZM26.1667 26.8787V29.1502H18.6667V26.8787C18.6667 24.997 20.3456 23.4716 22.4167 23.4716C24.4877 23.4716 26.1667 24.997 26.1667 26.8787Z" fill="white"/>
</svg>
