<svg width="60" height="60" viewBox="0 0 60 60" fill="none" xmlns="http://www.w3.org/2000/svg">
<path fill-rule="evenodd" clip-rule="evenodd" d="M50.0344 47.273C51.3962 48.6348 53.6416 48.5701 54.7332 46.9835C58.0553 42.1546 60 36.3044 60 30C60 23.8582 58.1544 18.1475 54.9875 13.3922C53.9101 11.7745 51.6401 11.6932 50.2658 13.0675L45.3799 17.9535C44.2062 19.1271 44.1103 20.9719 44.8631 22.4512C46.0165 24.7175 46.6667 27.2828 46.6667 30C46.6667 32.8369 45.9579 35.5082 44.7078 37.8465C43.9107 39.3376 43.9864 41.2249 45.1819 42.4205L50.0344 47.273ZM36.0327 14.4586C37.4404 15.0055 39.082 14.8233 40.1499 13.7554L45.2254 8.67987C46.6611 7.24411 46.4937 4.85472 44.7255 3.85661C40.3755 1.40115 35.3514 0 30 0C23.6956 0 17.8454 1.94466 13.0165 5.26685C11.4299 6.3584 11.3652 8.60382 12.727 9.96556L17.5796 14.8181C18.7751 16.0137 20.6624 16.0893 22.1535 15.2922C24.4918 14.0421 27.1631 13.3333 30 13.3333C32.1276 13.3333 34.162 13.732 36.0327 14.4586ZM14.3341 24.2984C14.84 22.9086 14.6422 21.3089 13.5964 20.2631L8.47484 15.1415C7.02615 13.6928 4.61191 13.8793 3.63248 15.6788C1.31608 19.9347 0 24.8136 0 30C0 35.3514 1.40115 40.3755 3.85661 44.7255C4.85472 46.4937 7.24411 46.6611 8.67987 45.2254L13.7554 40.1499C14.8233 39.082 15.0055 37.4404 14.4586 36.0327C13.732 34.162 13.3333 32.1276 13.3333 30C13.3333 27.9973 13.6866 26.0772 14.3341 24.2984ZM39.7369 46.4036C38.6911 45.3578 37.0914 45.16 35.7016 45.6659C33.9228 46.3134 32.0027 46.6667 30 46.6667C27.2828 46.6667 24.7175 46.0165 22.4512 44.8631C20.9719 44.1103 19.1271 44.2062 17.9535 45.3799L13.0675 50.2658C11.6932 51.6401 11.7745 53.9101 13.3922 54.9875C18.1475 58.1544 23.8582 60 30 60C35.1864 60 40.0653 58.6839 44.3212 56.3675C46.1207 55.3881 46.3072 52.9739 44.8585 51.5252L39.7369 46.4036Z" fill="#270108"/>
<path d="M40 30C40 35.5229 35.5229 40 30 40C24.4772 40 20 35.5229 20 30C20 24.4772 24.4772 20 30 20C35.5229 20 40 24.4772 40 30Z" fill="#FCCC30"/>
</svg>
