<svg width="60" height="60" viewBox="0 0 60 60" fill="none" xmlns="http://www.w3.org/2000/svg">
<path d="M51.4269 14.2851C51.4269 22.1746 45.0313 28.5702 37.1418 28.5702C29.2524 28.5702 22.8567 22.1746 22.8567 14.2851C22.8567 6.39566 29.2524 0 37.1418 0C45.0313 0 51.4269 6.39566 51.4269 14.2851Z" fill="#FCCC30"/>
<path d="M59.9985 43.9551C59.9985 51.2808 49.7655 54.2111 37.1424 54.2111C24.5192 54.2111 14.2862 51.2808 14.2862 43.9551C14.2862 37.3723 24.5192 33.6992 37.1424 33.6992C49.7655 33.6992 59.9985 36.6295 59.9985 43.9551Z" fill="#FCCC30"/>
<path d="M37.1408 20.074C37.1408 27.9634 30.7451 34.3591 22.8556 34.3591C14.9662 34.3591 8.57054 27.9634 8.57054 20.074C8.57054 12.1845 14.9662 5.78889 22.8556 5.78889C30.7451 5.78889 37.1408 12.1845 37.1408 20.074Z" fill="#270108"/>
<path d="M45.7123 49.744C45.7123 57.0697 35.4793 60 22.8562 60C10.2331 60 0 57.0697 0 49.744C0 43.1612 10.2331 39.4881 22.8562 39.4881C35.4793 39.4881 45.7123 42.4183 45.7123 49.744Z" fill="#270108"/>
</svg>
